<?xml version="1.0" encoding="utf-8"?>
<!-- Generator: Adobe Illustrator 16.0.0, SVG Export Plug-In . SVG Version: 6.00 Build 0)  -->
<!DOCTYPE svg PUBLIC "-//W3C//DTD SVG 1.1//EN" "http://www.w3.org/Graphics/SVG/1.1/DTD/svg11.dtd">
<svg version="1.1" id="Calque_1" xmlns="http://www.w3.org/2000/svg" xmlns:xlink="http://www.w3.org/1999/xlink" x="0px" y="0px"
	 width="480px" height="640px" viewBox="0 0 480 640" enable-background="new 0 0 480 640" xml:space="preserve">
<rect fill="#FAE219" width="480" height="640"/>
<path fill="#FAC903" d="M220.069,403.62c-1.696-3.028-3.581-5.548-5.382-7.351c-0.166-1.969-0.725-3.371-1.693-3.897
	c-0.924-0.503-2.097-0.13-3.36,0.903c-0.519-0.006-0.986,0.123-1.37,0.436c-0.555,0.452-0.895,1.223-1.046,2.217
	c-0.187,0.256-0.374,0.516-0.56,0.794c-2.466,0.567-5.422,1.916-8.398,3.976c-6.428,4.447-10.482,10.48-9.057,13.474
	c1.205,2.53,5.939,2.07,11.256-0.813c-0.592,4.32-0.114,7.628,1.5,8.506c2.469,1.342,6.703-3.464,9.732-10.878
	c4.113,7.177,9.258,11.437,11.59,9.539C225.654,418.593,224.217,411.024,220.069,403.62z"/>
<path d="M293.746,336.996c-3.603-28.175-11.016-54.348-21.198-77.288c10.845,6.001,23.635,18.407,34.311,34.306
	c17.438,25.966,22.634,51.389,11.604,56.777c-5.633,2.754-14.409-0.26-23.97-7.315C294.27,341.353,294.028,339.203,293.746,336.996z
	"/>
<path d="M187.055,336.996c3.603-28.175,11.016-54.348,21.198-77.288c-10.845,6.001-23.635,18.407-34.311,34.306
	c-17.438,25.966-22.634,51.389-11.604,56.777c5.633,2.754,14.409-0.26,23.97-7.315C186.531,341.353,186.772,339.203,187.055,336.996
	z"/>
<circle fill="#FFFFFF" cx="227.011" cy="220.806" r="1.673"/>
<g>
	<path fill="#171B17" d="M301.182,363.135c0-37.741-27.522-135.047-61.472-135.047c-33.947,0-61.469,97.306-61.469,135.047
		c0,37.743,27.521,36.859,61.469,36.859C273.659,399.994,301.182,400.878,301.182,363.135z"/>
	<path fill="#FFFFFF" d="M284.205,349.272c0-28.228-20.585-101.003-45.976-101.003c-25.39,0-45.974,72.776-45.974,101.003
		c0,28.229,20.584,27.568,45.974,27.568C263.62,376.841,284.205,377.501,284.205,349.272z"/>
</g>
<path d="M242.255,126.909c-1.65,0-3.287,0.105-4.906,0.305c33.415,4.13,59.746,49.643,59.746,85.746
	c0,36.104-26.331,49.758-59.746,50.942c1.619,0.059,3.256,0.087,4.906,0.087c35.706,0,64.651-13.175,64.651-51.029
	C306.906,175.106,277.961,126.909,242.255,126.909z"/>
<path fill="#171B17" d="M301.819,212.574c0-37.853-28.946-86.05-64.651-86.05c-35.706,0-64.651,48.197-64.651,86.05
	c0,37.854,28.945,51.029,64.651,51.029C272.873,263.603,301.819,250.427,301.819,212.574z"/>
<path fill="#FFFFFF" d="M288.766,209.893c0-30.361-22.992-65.019-51.355-65.019s-51.355,34.658-51.355,65.019
	c0,30.361,22.992,40.93,51.355,40.93S288.766,240.254,288.766,209.893z"/>
<path fill="#FAE219" d="M255.01,221.819c0,5.376-17.794,16.583-17.794,16.583s-17.793-11.207-17.793-16.583
	s7.966-9.735,17.793-9.735S255.01,216.443,255.01,221.819z"/>
<path fill="#FAD806" d="M253.159,218.074c0.415,0.825,0.643,1.693,0.643,2.59c0,5.377-17.794,16.584-17.794,16.584
	s-11.337-7.142-15.913-12.758c3.239,5.746,17.121,14.49,17.121,14.49s17.794-11.207,17.794-16.584
	C255.01,220.844,254.341,219.377,253.159,218.074z"/>
<ellipse fill="#FAD806" cx="231.783" cy="220.321" rx="5.779" ry="4.182"/>
<ellipse fill="#F2F1F1" stroke="#000000" stroke-miterlimit="10" cx="216.887" cy="194.105" rx="11.501" ry="16.489"/>
<ellipse cx="215.655" cy="195.719" rx="7.239" ry="10.379"/>
<ellipse fill="#FFFFFF" cx="210.473" cy="190.259" rx="3.431" ry="4.919"/>
<ellipse fill="#F2F1F1" stroke="#000000" stroke-miterlimit="10" cx="258.097" cy="195.418" rx="11.5" ry="16.49"/>
<ellipse cx="259.329" cy="197.032" rx="7.239" ry="10.379"/>
<ellipse fill="#FFFFFF" cx="264.511" cy="191.572" rx="3.431" ry="4.919"/>
<path fill="#171B17" d="M216.618,148.764c0,9.821,21.241,22.326,21.241,22.326s21.237-12.505,21.237-22.326
	s-9.509-13.24-21.237-13.24C226.129,135.523,216.618,138.942,216.618,148.764z"/>
<g>
	<polygon fill="#610000" points="238,264.66 215.213,274.066 219.496,264.033 215.266,254 238,263.406 	"/>
	<polyline fill="#610000" points="260.148,274.693 255.76,264.66 260.148,254.627 237.574,264.033 	"/>
	<line fill="#610000" x1="237.574" y1="264.66" x2="260.148" y2="274.066"/>
	<ellipse fill="#610000" cx="238.526" cy="264.43" rx="4.45" ry="2.481"/>
</g>
<path fill="#FAC903" d="M271.659,397.928c0.187,0.256,0.373-1.484,0.56-1.206c2.465,0.567,5.422,1.916,8.398,3.976
	c6.428,4.447,10.481,10.48,9.057,13.474c-1.205,2.53-5.939,2.07-11.256-0.813c0.591,4.32,0.113,7.628-1.502,8.506
	c-2.467,1.342-6.701-3.464-9.731-10.878c-4.112,7.177-9.257,11.437-11.589,9.539c-2.373-1.932-0.936-9.5,3.211-16.904
	c1.697-3.028,3.582-3.548,5.383-5.351L271.659,397.928z"/>
<path fill="none" stroke="#FFFFFF" stroke-width="4" stroke-miterlimit="10" d="M305.858,294.014
	c-10.243-15.255-22.429-27.277-32.979-33.529c-0.145-0.28-0.291-0.556-0.438-0.834c19.948-6.491,33.465-20.829,33.465-46.691
	c0-37.692-28.701-85.634-64.198-86.041c-1.826-0.255-3.673-0.394-5.54-0.394c-35.706,0-64.651,48.197-64.651,86.05
	c0,25.937,13.593,40.285,33.636,46.75c-0.42,0.795-0.836,1.601-1.249,2.416c-10.064,6.532-21.364,17.984-30.961,32.275
	c-17.438,25.966-22.634,51.389-11.604,56.777c4.221,2.063,10.207,0.888,16.966-2.8c-0.694,5.674-1.062,10.806-1.062,15.144
	c0,22.593,12.867,31.34,28.065,34.726c-1.616,0.702-6.326,1.646-8.047,2.837c-6.428,4.447-10.482,10.48-9.057,13.474
	c1.205,2.53,5.939,2.07,11.256-0.813c-0.592,4.32-0.114,7.628,1.5,8.506c2.469,1.342,6.703-3.464,9.732-10.878
	c4.113,7.177,9.258,11.437,11.59,9.539c2.373-1.932,0.936-9.5-3.212-16.904c-0.812-1.45-9.669-3.78-10.537-4.975
	c6.882,0.39,22.355,1.349,30.178,1.349c7.607,0,19.887,0.041,26.611-0.314c-0.861,1.186-6.709,2.503-7.515,3.94
	c-4.146,7.404-5.584,14.973-3.211,16.904c2.332,1.897,7.477-2.362,11.589-9.539c3.03,7.414,7.265,12.22,9.731,10.878
	c1.615-0.878,2.093-4.186,1.502-8.506c5.316,2.884,10.051,3.344,11.256,0.813c1.425-2.993-2.629-9.026-9.057-13.474
	c-1.658-1.147-9.308-1.066-10.873-1.76c24.756-2.246,31.438-13.028,31.438-35.803c0-4.553-0.404-9.979-1.168-15.99
	c7.363,4.342,13.922,5.859,18.449,3.646C328.492,345.402,323.297,319.979,305.858,294.014z"/>
</svg>
