<?xml version="1.0" encoding="utf-8"?>
<!-- Generator: Adobe Illustrator 16.0.0, SVG Export Plug-In . SVG Version: 6.00 Build 0)  -->
<!DOCTYPE svg PUBLIC "-//W3C//DTD SVG 1.1//EN" "http://www.w3.org/Graphics/SVG/1.1/DTD/svg11.dtd">
<svg version="1.1" id="Calque_1" xmlns="http://www.w3.org/2000/svg" xmlns:xlink="http://www.w3.org/1999/xlink" x="0px" y="0px"
	 width="480px" height="640px" viewBox="0 0 480 640" enable-background="new 0 0 480 640" xml:space="preserve">
<rect fill="#FAE219" width="480" height="640"/>
<g>
	<path fill="#FAC903" d="M219.168,472.488c-1.696-3.028-3.582-5.548-5.382-7.352c-0.166-1.969-0.724-3.37-1.693-3.896
		c-0.923-0.503-2.097-0.13-3.36,0.903c-0.519-0.007-0.986,0.123-1.37,0.436c-0.555,0.452-0.894,1.223-1.046,2.217
		c-0.187,0.256-0.374,0.517-0.56,0.794c-2.465,0.567-5.422,1.916-8.398,3.977c-6.427,4.446-10.481,10.479-9.056,13.474
		c1.205,2.53,5.939,2.07,11.255-0.812c-0.591,4.319-0.114,7.628,1.501,8.506c2.468,1.342,6.703-3.464,9.732-10.878
		c4.113,7.177,9.257,11.437,11.589,9.539C224.753,487.461,223.316,479.893,219.168,472.488z"/>
	<path fill="#FAC903" d="M257.906,472.488c1.696-3.028,3.582-5.548,5.382-7.352c0.166-1.969,0.725-3.37,1.693-3.896
		c0.923-0.503,2.097-0.13,3.36,0.903c0.519-0.007,0.985,0.123,1.369,0.436c0.557,0.452,0.896,1.223,1.048,2.217
		c0.186,0.256,0.373,0.517,0.56,0.794c2.465,0.567,5.422,1.916,8.398,3.977c6.427,4.446,10.48,10.479,9.057,13.474
		c-1.205,2.53-5.939,2.07-11.255-0.812c0.59,4.319,0.113,7.628-1.502,8.506c-2.467,1.342-6.702-3.464-9.732-10.878
		c-4.113,7.177-9.257,11.437-11.589,9.539C252.321,487.461,253.76,479.893,257.906,472.488z"/>
	<path fill="#171B17" d="M292.312,274.605c13.605-13.179,22.076-31.628,22.076-52.066c0-40.039-32.459-72.497-72.499-72.497
		c-40.039,0-72.497,32.458-72.497,72.497c0,19.09,7.39,36.445,19.45,49.392c-17.411,27.392-28.489,68.552-28.489,114.583
		c0,82.47,35.547,87.147,79.397,87.147s79.397-4.679,79.397-87.147C319.149,341.957,308.769,301.966,292.312,274.605z"/>
	<path fill="#FFFFFF" d="M302.344,424.134c0-50.354-28.306-180.178-63.218-180.178c-34.914,0-63.217,129.823-63.217,180.178
		c0,50.354,28.303,49.177,63.217,49.177C274.038,473.31,302.344,474.488,302.344,424.134z"/>
	<path fill="#FFFFFF" d="M262.275,178.426c-8.035,0-15.293,3.958-20.5,10.326c-5.206-6.368-12.465-10.326-20.5-10.326
		c-15.837,0-28.676,15.184-28.676,34.127s4.029,34.712,28.676,52.958c6.681,4.945,34.263,4.849,41,0
		c15.733-11.324,28.677-34.015,28.677-52.958S278.113,178.426,262.275,178.426z"/>
	<path d="M312.846,350.864c-3.604-28.176-11.016-54.349-21.198-77.289c10.845,6.001,23.636,18.407,34.312,34.306
		c17.438,25.965,22.634,51.389,11.604,56.777c-5.633,2.754-14.408-0.26-23.97-7.314
		C313.369,355.222,313.127,353.071,312.846,350.864z"/>
	<path d="M167.155,350.864c3.603-28.176,11.016-54.349,21.198-77.289c-10.845,6.001-23.635,18.407-34.311,34.306
		c-17.438,25.965-22.634,51.389-11.604,56.777c5.633,2.754,14.409-0.26,23.97-7.314C166.63,355.222,166.872,353.071,167.155,350.864
		z"/>
	<g>
		<ellipse fill="#F2F1F1" cx="222.382" cy="209.83" rx="16.56" ry="17.55"/>
		<ellipse fill="#F2F1F1" cx="258.205" cy="209.83" rx="16.561" ry="17.55"/>
		<ellipse fill="#3C4235" cx="222.775" cy="209.504" rx="7.16" ry="14.729"/>
		<circle fill="#FFFFFF" cx="220.655" cy="202.537" r="2.045"/>
		<ellipse fill="#3C4235" cx="258.585" cy="209.504" rx="7.16" ry="14.729"/>
		<circle fill="#FFFFFF" cx="256.463" cy="202.537" r="2.046"/>
	</g>
	<path fill="#FAE219" d="M265.866,242.687c0,5.376-25.512,16.583-25.512,16.583s-25.512-11.207-25.512-16.583
		s11.422-9.735,25.512-9.735S265.866,237.311,265.866,242.687z"/>
	<path fill="#FAD806" d="M263.213,238.942c0.597,0.825,0.921,1.693,0.921,2.59c0,5.377-25.512,16.583-25.512,16.583
		s-16.256-7.141-22.815-12.757c4.645,5.746,24.547,14.49,24.547,14.49s25.512-11.207,25.512-16.583
		C265.866,241.711,264.908,240.245,263.213,238.942z"/>
	<ellipse fill="#FAD806" cx="232.565" cy="241.189" rx="8.286" ry="4.182"/>
	<circle fill="#FFFFFF" cx="227.111" cy="238.674" r="1.673"/>
	<g>
		<polygon points="242.1,269.528 219.312,278.934 223.596,268.901 219.366,258.868 242.1,268.274 		"/>
		<polyline points="264.248,279.561 259.858,269.528 264.248,259.495 241.674,268.901 		"/>
		<line fill="none" x1="241.674" y1="269.528" x2="264.248" y2="278.934"/>
		<ellipse cx="242.625" cy="269.298" rx="4.45" ry="2.481"/>
	</g>
	<path fill="none" stroke="#FFFFFF" stroke-width="4" stroke-miterlimit="10" d="M325.957,306.882
		c-10.33-15.383-22.633-27.478-33.244-33.684c13.365-13.15,21.676-31.426,21.676-51.658c0-40.039-32.459-72.497-72.498-72.497
		s-72.497,32.458-72.497,72.497c0,19.09,7.39,36.445,19.45,49.392c-0.443,0.697-0.88,1.41-1.314,2.125
		c-10.666,6.162-23.079,18.325-33.487,33.826c-17.438,25.966-22.634,51.388-11.604,56.777c4.662,2.278,11.48,0.599,19.111-4.046
		c-0.783,8.413-1.194,17.064-1.194,25.9c0,53.902,15.188,74.569,37.953,82.423c-0.315,0.203-0.632,0.41-0.948,0.629
		c-6.428,4.446-10.482,10.479-9.057,13.474c1.205,2.53,5.939,2.07,11.256-0.812c-0.592,4.319-0.114,7.628,1.5,8.506
		c2.469,1.342,6.703-3.464,9.732-10.878c4.113,7.177,9.258,11.437,11.59,9.539c2.318-1.888,0.992-9.154-2.938-16.394
		c6.483,0.54,13.289,0.662,20.309,0.662c6.112,0,12.062-0.092,17.777-0.472c-3.849,7.175-5.132,14.332-2.834,16.202
		c2.332,1.896,7.478-2.362,11.589-9.539c3.03,7.414,7.266,12.22,9.731,10.878c1.615-0.878,2.093-4.187,1.502-8.506
		c5.315,2.884,10.051,3.344,11.256,0.812c1.425-2.993-2.629-9.026-9.057-13.474c-0.049-0.033-0.097-0.062-0.145-0.096
		c23.663-7.431,39.576-27.782,39.576-82.957c0-8.949-0.426-17.713-1.229-26.229c7.845,4.891,14.871,6.707,19.642,4.375
		C348.592,358.271,343.396,332.847,325.957,306.882z"/>
</g>
</svg>
